<?xml version="1.0" standalone="no"?><!DOCTYPE svg PUBLIC "-//W3C//DTD SVG 1.1//EN" "http://www.w3.org/Graphics/SVG/1.1/DTD/svg11.dtd"><svg t="1757948014944" class="icon" viewBox="0 0 1024 1024" version="1.1" xmlns="http://www.w3.org/2000/svg" p-id="8549" width="400" height="400" xmlns:xlink="http://www.w3.org/1999/xlink"><path d="M901.567849 67.903546L347.445863 21.424113c-32.680851 0-45.511111 51.07896-49.384397 92.353665h-176.718676C84.788652 113.777778 55.133806 143.432624 55.133806 179.986761V833.966903c0 36.554137 29.654846 66.208983 66.208984 66.208984h176.718676c3.752246 41.274704 16.582506 92.353664 49.384397 92.353664l554.000946-46.479433c40.790544 0 73.955556-33.043972 73.955555-73.955555V141.859102c0-40.911584-33.043972-73.955556-73.834515-73.955556zM296.851064 849.339007H154.749882c-30.744208 0-55.557447-26.144681-55.557447-58.341371V214.725296c0-32.19669 24.934279-58.341371 55.557447-58.341372h142.101182v692.955083z m187.370213-255.152719c0 15.977305-12.9513 28.928605-28.928606 28.928606s-28.928605-12.9513-28.928605-28.928606v-174.297872c0-15.977305 12.9513-28.928605 28.928605-28.928605s28.928605 12.9513 28.928606 28.928605v174.297872z" fill="#00C394" p-id="8550"></path></svg>