<?xml version="1.0" standalone="no"?><!DOCTYPE svg PUBLIC "-//W3C//DTD SVG 1.1//EN" "http://www.w3.org/Graphics/SVG/1.1/DTD/svg11.dtd"><svg t="1758288744014" class="icon" viewBox="0 0 1024 1024" version="1.1" xmlns="http://www.w3.org/2000/svg" p-id="4726" width="500" height="500" xmlns:xlink="http://www.w3.org/1999/xlink"><path d="M64 352m32 0l0 0q32 0 32 32l0 256q0 32-32 32l0 0q-32 0-32-32l0-256q0-32 32-32Z" fill="#FE9C23" p-id="4727"></path><path d="M896 352m32 0l0 0q32 0 32 32l0 256q0 32-32 32l0 0q-32 0-32-32l0-256q0-32 32-32Z" fill="#FE9C23" p-id="4728"></path><path d="M320 192a64 64 0 0 0-64 64v512a64 64 0 0 0 64 64h384a64 64 0 0 0 64-64v-512a64 64 0 0 0-64-64h-384m0-64h384a128 128 0 0 1 128 128v512a128 128 0 0 1-128 128h-384a128 128 0 0 1-128-128v-512a128 128 0 0 1 128-128z" fill="#4078FD" p-id="4729"></path><path d="M432 368m-48 0a48 48 0 1 0 96 0 48 48 0 1 0-96 0Z" fill="#4078FD" p-id="4730"></path><path d="M432 352a16 16 0 1 0 16 16 16 16 0 0 0-16-16m0-32a48 48 0 1 1-48 48 48 48 0 0 1 48-48z" fill="#4078FD" p-id="4731"></path><path d="M384 707.552a32 32 0 0 1-32-32v-128a32 32 0 0 1 44.224-29.568l99.776 41.184 120.256-132.64a32 32 0 0 1 55.744 21.472v227.552a32 32 0 0 1-32 32z m0-32h256z" fill="#4078FD" opacity=".2" p-id="4732"></path><path d="M640 448l-135.264 149.344-120.736-49.792v128h256V448m0-32a32 32 0 0 1 32 32v227.552a32 32 0 0 1-32 32h-256a32 32 0 0 1-32-32v-128a32 32 0 0 1 44.192-29.6l99.808 41.216 120.16-132.64a32 32 0 0 1 23.84-10.528z" fill="#4078FD" p-id="4733"></path></svg>