<?xml version="1.0" standalone="no"?><!DOCTYPE svg PUBLIC "-//W3C//DTD SVG 1.1//EN" "http://www.w3.org/Graphics/SVG/1.1/DTD/svg11.dtd"><svg t="1758017032437" class="icon" viewBox="0 0 1024 1024" version="1.1" xmlns="http://www.w3.org/2000/svg" p-id="5989" width="400" height="400" xmlns:xlink="http://www.w3.org/1999/xlink"><path d="M48 48h96v928H48z" fill="#ED7A7A" p-id="5990"></path><path d="M880 48H144v928h832V144h-96V48zM304 128h512v128H304V128z m-80 192h96l8 80 4.8 48 3.2 32h-128l16-160z m688 344V848h-48v64h-64v-64H480v64h-64v-64h-48V664a40 40 0 1 1 80 0V592a32 32 0 0 1 32-32h320a32 32 0 0 1 32 32v72a40 40 0 1 1 80 0z" fill="#FCF8F2" p-id="5991"></path><path d="M304 128h512v128H304zM832 664V592a32 32 0 0 0-32-32H480a32 32 0 0 0-32 32v72a40 40 0 1 0-80 0V848h544V664a40 40 0 1 0-80 0z" fill="#75CAD3" p-id="5992"></path><path d="M416 848h64v64h-64zM800 848h64v64h-64z" fill="#ED7A7A" p-id="5993"></path><path d="M336 480l-3.2-32-4.8-48-8-80h-96l-16 160h64z" fill="#F9DD64" p-id="5994"></path><path d="M880 144h96l-96-96z" fill="#75CAD3" p-id="5995"></path><path d="M304 272h512a16 16 0 0 0 16-16V128a16 16 0 0 0-16-16H304a16 16 0 0 0-16 16v128a16 16 0 0 0 16 16z m16-128h480v96H320V144zM872 608c-8.624 0-16.704 2.128-24 5.616V592c0-26.464-21.536-48-48-48H480c-26.464 0-48 21.536-48 48v21.616A55.424 55.424 0 0 0 408 608c-30.88 0-56 25.12-56 56V848a16 16 0 0 0 16 16h32v48a16 16 0 0 0 16 16h64a16 16 0 0 0 16-16v-48h288v48a16 16 0 0 0 16 16h64a16 16 0 0 0 16-16v-48h32a16 16 0 0 0 16-16V664c0-30.88-25.12-56-56-56zM816 592v144H656V576h144c8.816 0 16 7.184 16 16z m-352 0c0-8.816 7.184-16 16-16h144v160H464v-144z m0 304h-32v-32h32v32z m384 0h-32v-32h32v32z m48-64H384V664c0-13.232 10.768-24 24-24s24 10.768 24 24V752a16 16 0 0 0 16 16h384a16 16 0 0 0 16-16v-88c0-13.232 10.768-24 24-24s24 10.768 24 24V832z" fill="#594836" p-id="5996"></path><path d="M288 496h48a16 16 0 0 0 15.92-17.6l-1.44-14.4H816v-32H347.28l-8.16-81.6-3.2-32A16 16 0 0 0 320 304h-96a16 16 0 0 0-15.92 14.4l-16 160A16.016 16.016 0 0 0 208 496h48v400h-64v32h160v-32h-64V496z m-49.52-160h67.04l1.76 17.6 9.6 96v0.032l1.44 14.368h-92.64l12.8-128zM464 176h32v32h-32zM544 176h32v32h-32zM624 176h32v32h-32z" fill="#594836" p-id="5997"></path><path d="M990.976 138.88c-0.176-0.512-0.304-1.008-0.544-1.504a15.952 15.952 0 0 0-3.136-4.688l-96-96a16.08 16.08 0 0 0-4.704-3.152c-0.464-0.208-0.944-0.336-1.44-0.512a15.968 15.968 0 0 0-4.24-0.848C880.608 32.16 880.32 32 880 32H48a16 16 0 0 0-16 16v928a16 16 0 0 0 16 16h928a16 16 0 0 0 16-16V144c0-0.352-0.176-0.656-0.208-1.008a15.12 15.12 0 0 0-0.816-4.112zM937.376 128H896V86.624L937.376 128zM64 64h64v896H64V64z m96 896V64h704v80a16 16 0 0 0 16 16h80v800H160z" fill="#594836" p-id="5998"></path><path d="M384 336h352v32H384z" fill="#594836" p-id="5999"></path></svg>