<?xml version="1.0" standalone="no"?><!DOCTYPE svg PUBLIC "-//W3C//DTD SVG 1.1//EN" "http://www.w3.org/Graphics/SVG/1.1/DTD/svg11.dtd"><svg t="1758269578488" class="icon" viewBox="0 0 1024 1024" version="1.1" xmlns="http://www.w3.org/2000/svg" p-id="5117" width="450" height="450" xmlns:xlink="http://www.w3.org/1999/xlink"><path d="M510.243975 126.564787a20.466492 20.466492 0 0 1-20.466492-20.466492V40.932984a20.466492 20.466492 0 0 1 40.932984 0v65.165311a20.470585 20.470585 0 0 1-20.466492 20.466492z" fill="#6E6E96" p-id="5118"></path><path d="M142.055875 474.286395c0-203.346879 164.841221-368.1881 368.1881-368.1881s368.1881 164.841221 368.1881 368.1881" fill="#D4B2B6" p-id="5119"></path><path d="M878.432075 494.752887a20.466492 20.466492 0 0 1-20.466492-20.466492c0-191.734191-155.983323-347.721608-347.721608-347.721608-191.734191 0-347.721608 155.987416-347.721608 347.721608a20.466492 20.466492 0 0 1-40.932984 0c0-214.304639 174.349953-388.654592 388.654592-388.654592s388.654592 174.349953 388.654592 388.654592a20.466492 20.466492 0 0 1-20.466492 20.466492z" fill="#6E6E96" p-id="5120"></path><path d="M898.816701 505.677901c0 22.513141-18.419843 40.932984-40.932984 40.932984H157.594036c-22.513141 0-40.932984-18.419843-40.932984-40.932984v-15.853345c0-22.513141 18.419843-40.932984 40.932984-40.932984H857.883717c22.513141 0 40.932984 18.419843 40.932984 40.932984v15.853345z" fill="#D4B2B6" p-id="5121"></path><path d="M857.883717 567.077377H157.594036c-33.855671 0-61.399476-27.543805-61.399476-61.399476v-15.853345c0-33.855671 27.543805-61.399476 61.399476-61.399477H857.883717c33.855671 0 61.399476 27.543805 61.399476 61.399477v15.853345c0 33.855671-27.543805 61.399476-61.399476 61.399476zM157.594036 469.358064c-11.285224 0-20.466492 9.181268-20.466492 20.466492v15.853345c0 11.28113 9.181268 20.466492 20.466492 20.466492H857.883717c11.285224 0 20.466492-9.181268 20.466492-20.466492v-15.853345c0-11.285224-9.181268-20.466492-20.466492-20.466492H157.594036z" fill="#6E6E96" p-id="5122"></path><path d="M663.104111 139.245826c18.305231 21.547123 28.321532 44.846178 28.321532 69.164463 0 110.019675-204.644455 199.208554-457.086355 199.208555-29.250711 0-57.850587-1.211616-85.574497-3.499771a370.038271 370.038271 0 0 0-6.708916 70.171415H878.432075c0-148.811864-88.28426-276.985318-215.327964-335.044662z" fill="#6E6E96" opacity=".15" p-id="5123"></path><path d="M335.76713 297.447717a20.466492 20.466492 0 0 1-15.767386-33.503648c1.93613-2.341367 48.108536-57.596802 108.28821-75.148866a20.466492 20.466492 0 0 1 11.461236 39.295665C391.517854 242.159535 351.952032 289.539464 351.559075 290.01838a20.437839 20.437839 0 0 1-15.791945 7.429337z" fill="#FFFFFF" opacity=".5" p-id="5124"></path><path d="M857.883717 448.891572h-72.668327c-85.971547 51.673799-259.13035 86.986685-458.748234 86.986684-73.274135 0-142.966634-4.772786-206.109856-13.352339 6.459225 14.158719 20.728463 24.080875 37.236736 24.080875H857.883717c22.513141 0 40.932984-18.419843 40.932984-40.932985v-15.853345c0-22.509048-18.419843-40.928891-40.932984-40.92889z" fill="#6E6E96" opacity=".15" p-id="5125"></path><path d="M106.448272 983.067016l161.623888-198.6314c22.689153-25.010053 41.252262-58.755206 41.252262-74.96876s-2.672924-52.725777-20.945408-81.112802l-38.129075-40.167537c-18.272484-28.399304-14.523023-39.352971 8.338049-39.352971s64.240225-8.776032 104.231751 10.519777l54.146152 70.445666c35.656723 33.372662 43.687774 32.951052 95.451625 13.135394l252.728432-117.182947c31.538864-12.071137 57.338924-2.668831 57.322551 20.892195-0.016373 23.552839-20.961781 60.846881-46.553083 82.881107l-173.228389 149.118861c-25.591302 22.030132-70.122295 39.483957-98.951397 38.800376-28.833194-0.695861-62.55788 24.457458-74.936014 55.85715L385.783143 982.391622l-279.334871 0.675394z" fill="#F0F0FF" p-id="5126"></path><path d="M765.145948 525.726876l-252.728432 117.178854c-51.763852 19.819751-59.79081 20.241361-95.447532-13.135394l-66.868123-75.640062s-68.652801-5.325381-91.513873-5.325381-26.610533 10.953667-8.338049 39.348878l38.129075 40.17163c18.272484 28.399304 20.945408 64.895153 20.945408 81.112802 0 8.182504-4.735946 20.843076-12.337202 34.571998l147.448796 103.887914c16.00889-18.501709 38.857682-31.002642 59.287335-30.515539 28.837287 0.687674 93.355857-16.811177 135.799268-59.266868l136.388704-128.644183c25.591302-22.034225 46.528523-59.328267 46.553082-82.881107 0.020466-23.532373-25.779593-32.934679-57.318457-20.863542z" fill="#FFD2AB" p-id="5127"></path><path d="M122.322083 995.981372l161.623889-198.631399a20.073535 20.073535 0 0 1-0.716328 0.83094c23.135323-25.497156 46.56127-64.170639 46.56127-88.722244 0-16.414127-2.35774-58.25173-24.19958-92.189267a20.077629 20.077629 0 0 0-2.365927-3.012667l-38.129075-40.163445c0.880059 0.933272 1.674159 1.940223 2.365927 3.012668-7.744521-12.038391-8.325769-16.397753-8.346236-16.577859 0.376583 3.221426-2.832563 8.223437-5.923002 9.226295 0.057306-0.016373 1.477681-0.458449 5.394967-0.458449 5.538233 0 11.682274-0.425703 18.194711-0.880059 22.496768-1.559547 50.490836-3.495677 77.146396 9.361373a20.458306 20.458306 0 0 1-7.335191-5.959842l54.146152 70.445665c0.679488 0.888246 1.428561 1.710999 2.239034 2.472353 42.96326 40.212564 59.336454 39.291572 116.749057 17.310559 0.43389-0.163732 0.871873-0.352024 1.289389-0.548502l252.724338-117.182948a22.136558 22.136558 0 0 1-1.289389 0.548502c15.656866-5.992589 25.247465-3.823141 28.129147-1.829704 0.663114 0.450263 1.416281 0.966018 1.416281 3.598009-0.016373 15.779665-16.884856 47.961178-39.447117 67.379786l-173.220202 149.118861c-21.600336 18.595855-61.374917 34.408267-85.116048 33.843392-37.408654-0.896432-78.90242 29.332576-94.465141 68.820626L366.741119 974.900885a20.474679 20.474679 0 0 1 18.992905-12.967569l-279.334871 0.671301a20.466492 20.466492 0 0 1 15.92293 33.376755z m282.503084-6.086734l43.008287-109.110963c9.201735-23.344081 35.087754-43.39715 55.402794-42.901861 33.822925 0.802286 83.372302-18.411656 112.799025-43.749174l173.228389-149.110674c30.576939-26.328095 53.642676-68.624148 53.667236-98.382428 0.008187-15.579094-6.786689-28.837287-19.136171-37.339068-16.569672-11.408023-40.6178-12.386321-65.967597-2.677017a19.115704 19.115704 0 0 0-1.293482 0.544408l-252.724338 117.182947c0.425703-0.196478 0.855499-0.380677 1.289389-0.548502-45.828569 17.543877-45.828569 17.543877-74.146008-8.96023 0.810473 0.765447 1.559547 1.592293 2.239034 2.472352L379.049667 546.864669a20.458306 20.458306 0 0 0-7.335191-5.959842c-36.434449-17.580717-73.339628-15.026499-97.760246-13.335966-6.033522 0.42161-11.244291 0.777727-15.366242 0.777726-18.055539 0-30.384554 5.82067-36.651394 17.310559-9.508732 17.421078 0.937365 37.781144 11.105118 53.58537 0.691767 1.084724 1.485867 2.091675 2.365927 3.016761l38.129075 40.163444a20.720277 20.720277 0 0 1-2.365927-3.012668c16.414127 25.501249 17.687142 60.065061 17.687143 70.04043 0 7.331097-12.685132 35.583043-35.943254 61.219371a13.986801 13.986801 0 0 0-0.716327 0.835033L90.570368 970.144473a20.466492 20.466492 0 0 0 15.927024 33.389035L385.832263 1002.858114a20.450119 20.450119 0 0 0 18.992904-12.963476z" fill="#6E6E96" p-id="5128"></path><path d="M432.221614 864.328615L280.790039 751.488657l24.457458-32.82416 151.431575 112.835865z" fill="#6E6E96" p-id="5129"></path></svg>